<?xml version="1.0" encoding="UTF-8"?>
<svg xmlns="http://www.w3.org/2000/svg" xmlns:xlink="http://www.w3.org/1999/xlink" width="256px" height="256px" viewBox="0 0 256 256" version="1.1">
<g id="surface1">
<path style=" stroke:none;fill-rule:nonzero;fill:rgb(0%,0%,0%);fill-opacity:1;" d="M 142.207031 43.902344 C 140.414062 45.695312 140.414062 48.257812 142.207031 48.894531 C 142.976562 49.152344 140.414062 54.144531 136.449219 60.03125 C 132.480469 65.921875 129.28125 71.167969 129.28125 71.679688 C 129.28125 72.191406 126.078125 75.902344 122.238281 79.871094 C 114.816406 87.425781 113.921875 89.214844 117.246094 90.496094 C 120.320312 91.648438 130.945312 85.886719 143.359375 76.414062 C 152.0625 69.632812 154.625 68.351562 156.542969 69.246094 C 158.335938 70.273438 159.359375 69.886719 161.28125 67.585938 C 164.480469 63.742188 164.480469 62.847656 160.769531 54.398438 C 158.464844 49.40625 156.542969 46.976562 153.984375 45.953125 C 146.433594 43.007812 143.617188 42.496094 142.207031 43.902344 Z M 142.207031 43.902344 "/>
<path style=" stroke:none;fill-rule:nonzero;fill:rgb(0%,0%,0%);fill-opacity:1;" d="M 111.871094 58.367188 C 110.335938 59.390625 105.601562 61.183594 101.246094 62.207031 L 93.441406 64.257812 L 89.472656 60.929688 C 87.296875 59.136719 84.992188 57.601562 84.222656 57.601562 C 80.894531 57.601562 86.398438 72.320312 94.207031 84.734375 C 96.640625 88.449219 98.175781 89.601562 100.863281 89.601562 C 102.785156 89.601562 105.089844 88.960938 105.984375 88.0625 C 107.777344 86.273438 108.03125 77.3125 106.238281 76.160156 C 104.703125 75.265625 106.878906 69.375 109.953125 65.921875 C 112.640625 63.105469 115.585938 57.601562 114.945312 56.960938 C 114.6875 56.832031 113.28125 57.472656 111.871094 58.367188 Z M 111.871094 58.367188 "/>
<path style=" stroke:none;fill-rule:nonzero;fill:rgb(0%,0%,0%);fill-opacity:1;" d="M 142.976562 81.664062 C 139.902344 84.992188 140.289062 86.910156 144 87.808594 C 146.816406 88.449219 147.199219 89.34375 147.199219 94.078125 C 147.199219 100.863281 144.769531 103.679688 138.625 103.679688 C 135.425781 103.679688 132.734375 102.527344 129.023438 99.328125 C 124.03125 94.976562 118.273438 92.542969 116.734375 94.078125 C 116.222656 94.464844 116.480469 95.230469 117.246094 95.742188 C 119.425781 97.152344 121.855469 102.398438 121.214844 104.320312 C 120.832031 105.214844 118.910156 106.238281 116.863281 106.496094 C 114.945312 106.878906 112.382812 107.519531 111.230469 108.03125 C 109.695312 108.671875 108.414062 107.648438 106.625 104.191406 C 105.089844 101.246094 102.527344 98.6875 100.222656 97.664062 L 96.257812 96.128906 L 97.40625 100.863281 C 99.199219 108.414062 98.816406 109.695312 94.71875 111.105469 C 91.265625 112.382812 90.625 112.128906 88.703125 109.183594 C 84.863281 103.550781 79.617188 98.945312 76.160156 98.304688 C 71.9375 97.40625 71.296875 98.433594 74.238281 100.992188 C 75.777344 102.144531 76.800781 105.089844 77.054688 108.03125 C 77.441406 112.769531 77.183594 113.152344 73.089844 114.175781 C 70.65625 114.816406 67.328125 115.199219 65.664062 114.816406 C 63.105469 114.304688 62.71875 114.6875 63.488281 116.992188 C 64.640625 120.449219 71.679688 129.28125 73.472656 129.40625 C 74.238281 129.535156 75.519531 129.535156 76.414062 129.40625 C 78.207031 129.152344 78.976562 131.585938 80 140.929688 L 80.894531 147.96875 L 72.703125 150.398438 C 48.382812 157.3125 43.519531 158.71875 36.480469 160.128906 C 32.257812 161.023438 28.289062 162.046875 27.777344 162.6875 C 27.136719 163.199219 29.953125 166.015625 33.921875 169.089844 L 41.34375 174.59375 L 44.671875 170.625 C 46.464844 168.449219 50.046875 166.144531 52.480469 165.375 C 54.910156 164.609375 60.671875 162.558594 65.28125 160.769531 C 69.886719 158.847656 76.671875 157.054688 80.511719 156.542969 C 84.351562 156.160156 88.960938 155.007812 90.753906 153.984375 C 92.671875 153.089844 96.640625 152.320312 99.839844 152.320312 C 103.167969 152.320312 106.367188 151.679688 107.007812 151.039062 C 108.160156 149.886719 134.144531 146.816406 140.160156 147.070312 C 141.566406 147.199219 146.175781 147.199219 150.398438 147.070312 C 159.742188 146.945312 190.71875 152.832031 202.878906 156.929688 C 213.503906 160.511719 214.273438 160.640625 216.832031 157.953125 C 222.207031 152.703125 217.601562 144.894531 206.078125 139.265625 C 200.703125 136.703125 198.527344 136.574219 178.046875 136.832031 L 155.777344 137.089844 L 156.671875 132.222656 C 157.183594 129.535156 157.953125 124.289062 158.335938 120.574219 C 158.71875 116.734375 159.742188 113.40625 160.511719 113.152344 C 161.28125 112.894531 166.015625 114.046875 170.878906 115.710938 L 179.839844 118.910156 L 180.222656 114.304688 C 180.734375 108.929688 178.6875 106.367188 170.238281 102.144531 C 166.144531 100.097656 164.351562 98.304688 164.097656 96.128906 C 163.328125 91.519531 157.953125 84.992188 152.191406 82.046875 C 146.046875 78.71875 145.535156 78.71875 142.976562 81.664062 Z M 144.640625 117.246094 C 144.640625 119.808594 143.742188 123.648438 142.847656 125.824219 C 141.824219 128.128906 140.800781 131.585938 140.542969 133.761719 C 140.289062 136.832031 139.519531 137.726562 136.832031 137.984375 L 133.632812 138.367188 L 133.503906 126.464844 C 133.375 113.535156 133.761719 112.640625 140.542969 112.640625 C 144.382812 112.640625 144.640625 112.894531 144.640625 117.246094 Z M 120.703125 116.863281 C 120.960938 117.761719 120.960938 120.703125 120.449219 123.519531 C 119.9375 126.335938 119.9375 131.199219 120.449219 134.398438 C 120.960938 137.601562 121.214844 140.160156 121.089844 140.289062 C 121.089844 140.414062 118.273438 140.800781 114.945312 141.183594 L 108.929688 141.953125 L 108.542969 130.816406 C 108.289062 124.671875 108.289062 119.039062 108.542969 118.144531 C 108.800781 117.246094 111.105469 116.351562 113.664062 116.097656 C 116.351562 115.839844 118.785156 115.585938 119.167969 115.457031 C 119.679688 115.328125 120.320312 115.96875 120.703125 116.863281 Z M 98.816406 129.28125 C 98.945312 134.910156 99.070312 140.542969 99.070312 141.695312 C 99.199219 144.128906 92.289062 146.558594 90.496094 144.769531 C 89.855469 144.128906 89.34375 139.519531 89.34375 134.527344 C 89.34375 124.414062 91.648438 119.039062 96 119.039062 C 98.304688 119.039062 98.558594 120.0625 98.816406 129.28125 Z M 98.816406 129.28125 "/>
<path style=" stroke:none;fill-rule:nonzero;fill:rgb(0%,0%,0%);fill-opacity:1;" d="M 122.496094 165.375 C 121.726562 170.625 127.359375 189.3125 130.046875 190.335938 C 132.863281 191.359375 138.238281 185.726562 138.238281 181.761719 C 138.238281 179.839844 139.648438 175.617188 141.441406 172.289062 L 144.640625 166.273438 L 140.160156 167.167969 C 136.574219 167.808594 135.039062 167.296875 131.710938 164.609375 C 126.207031 160 123.390625 160.257812 122.496094 165.375 Z M 122.496094 165.375 "/>
<path style=" stroke:none;fill-rule:nonzero;fill:rgb(0%,0%,0%);fill-opacity:1;" d="M 97.28125 166.144531 C 97.28125 168.0625 96.640625 170.367188 95.871094 171.136719 C 94.847656 172.160156 94.847656 174.335938 96 179.457031 C 98.816406 192 99.070312 192.640625 102.527344 193.023438 C 107.519531 193.664062 109.183594 190.464844 109.183594 180.609375 C 109.183594 172.160156 109.054688 171.777344 104.191406 167.296875 C 98.175781 161.664062 97.28125 161.535156 97.28125 166.144531 Z M 97.28125 166.144531 "/>
<path style=" stroke:none;fill-rule:nonzero;fill:rgb(0%,0%,0%);fill-opacity:1;" d="M 153.214844 163.710938 C 151.167969 164.480469 151.296875 164.863281 154.496094 167.167969 C 156.671875 168.832031 161.023438 175.617188 165.121094 183.808594 C 168.960938 191.488281 173.3125 199.039062 174.59375 200.574219 C 177.792969 204.289062 184.960938 204.542969 186.753906 201.214844 C 188.414062 198.015625 186.113281 188.03125 182.273438 182.398438 C 180.609375 179.839844 179.199219 177.40625 179.199219 176.769531 C 179.199219 175.617188 173.3125 170.113281 168.320312 166.785156 C 164.097656 163.96875 156.800781 162.433594 153.214844 163.710938 Z M 153.214844 163.710938 "/>
<path style=" stroke:none;fill-rule:nonzero;fill:rgb(0%,0%,0%);fill-opacity:1;" d="M 67.96875 173.441406 C 61.441406 180.992188 59.777344 186.113281 61.566406 194.433594 C 63.105469 201.855469 65.152344 207.359375 66.433594 207.359375 C 70.273438 207.105469 76.929688 193.28125 79.359375 180.222656 C 80.128906 176.128906 79.871094 174.847656 77.054688 172.160156 C 75.390625 170.367188 73.472656 168.960938 72.960938 168.960938 C 72.320312 168.960938 70.144531 171.007812 67.96875 173.441406 Z M 67.96875 173.441406 "/>
</g>
</svg>
